<mxfile host="app.diagrams.net" modified="2021-09-26T18:59:29.604Z" agent="5.0 (Windows NT 10.0; Win64; x64) AppleWebKit/537.36 (KHTML, like Gecko) Chrome/93.0.4577.82 Safari/537.36" etag="mCVpw5F_Xr2gKTL6rG02" version="15.3.3" type="github">
  <diagram id="qCXo4YLp-fStZy_Tu3N9" name="Page-1">
    <mxGraphModel dx="1488" dy="605" grid="0" gridSize="10" guides="1" tooltips="1" connect="1" arrows="1" fold="1" page="1" pageScale="1" pageWidth="827" pageHeight="1169" math="0" shadow="0">
      <root>
        <mxCell id="0" />
        <mxCell id="1" parent="0" />
        <mxCell id="YcKdSxdi29RzgTdwLnxG-10" value="9.2" style="swimlane;childLayout=stackLayout;horizontal=1;startSize=30;horizontalStack=0;rounded=1;fontSize=14;fontStyle=1;strokeWidth=2;resizeParent=0;resizeLast=1;shadow=0;dashed=0;align=center;hachureGap=4;pointerEvents=0;fillColor=#dae8fc;strokeColor=#6c8ebf;" vertex="1" parent="1">
          <mxGeometry x="349" y="240" width="130" height="120" as="geometry" />
        </mxCell>
        <mxCell id="YcKdSxdi29RzgTdwLnxG-11" value="View Report" style="align=center;spacingLeft=4;fontSize=14;verticalAlign=top;resizable=0;rotatable=0;part=1;" vertex="1" parent="YcKdSxdi29RzgTdwLnxG-10">
          <mxGeometry y="30" width="130" height="90" as="geometry" />
        </mxCell>
        <mxCell id="YcKdSxdi29RzgTdwLnxG-12" value="" style="align=center;spacingLeft=4;fontSize=14;verticalAlign=top;resizable=0;rotatable=0;part=1;" vertex="1" parent="YcKdSxdi29RzgTdwLnxG-10">
          <mxGeometry y="120" width="130" as="geometry" />
        </mxCell>
        <mxCell id="YcKdSxdi29RzgTdwLnxG-13" value="" style="align=center;spacingLeft=4;fontSize=14;verticalAlign=top;resizable=0;rotatable=0;part=1;" vertex="1" parent="YcKdSxdi29RzgTdwLnxG-10">
          <mxGeometry y="120" width="130" as="geometry" />
        </mxCell>
        <mxCell id="YcKdSxdi29RzgTdwLnxG-14" value="9.1" style="swimlane;childLayout=stackLayout;horizontal=1;startSize=30;horizontalStack=0;rounded=1;fontSize=14;fontStyle=1;strokeWidth=2;resizeParent=0;resizeLast=1;shadow=0;dashed=0;align=center;hachureGap=4;pointerEvents=0;fillColor=#dae8fc;strokeColor=#6c8ebf;" vertex="1" parent="1">
          <mxGeometry x="349" y="80" width="130" height="120" as="geometry" />
        </mxCell>
        <mxCell id="YcKdSxdi29RzgTdwLnxG-15" value="Select Date" style="align=center;spacingLeft=4;fontSize=14;verticalAlign=top;resizable=0;rotatable=0;part=1;" vertex="1" parent="YcKdSxdi29RzgTdwLnxG-14">
          <mxGeometry y="30" width="130" height="90" as="geometry" />
        </mxCell>
        <mxCell id="YcKdSxdi29RzgTdwLnxG-16" value="" style="align=center;spacingLeft=4;fontSize=14;verticalAlign=top;resizable=0;rotatable=0;part=1;" vertex="1" parent="YcKdSxdi29RzgTdwLnxG-14">
          <mxGeometry y="120" width="130" as="geometry" />
        </mxCell>
        <mxCell id="YcKdSxdi29RzgTdwLnxG-17" value="" style="align=center;spacingLeft=4;fontSize=14;verticalAlign=top;resizable=0;rotatable=0;part=1;" vertex="1" parent="YcKdSxdi29RzgTdwLnxG-14">
          <mxGeometry y="120" width="130" as="geometry" />
        </mxCell>
        <mxCell id="YcKdSxdi29RzgTdwLnxG-18" value="9.3" style="swimlane;childLayout=stackLayout;horizontal=1;startSize=30;horizontalStack=0;rounded=1;fontSize=14;fontStyle=1;strokeWidth=2;resizeParent=0;resizeLast=1;shadow=0;dashed=0;align=center;hachureGap=4;pointerEvents=0;fillColor=#dae8fc;strokeColor=#6c8ebf;" vertex="1" parent="1">
          <mxGeometry x="349" y="400" width="130" height="120" as="geometry" />
        </mxCell>
        <mxCell id="YcKdSxdi29RzgTdwLnxG-19" value="Print report" style="align=center;spacingLeft=4;fontSize=14;verticalAlign=top;resizable=0;rotatable=0;part=1;" vertex="1" parent="YcKdSxdi29RzgTdwLnxG-18">
          <mxGeometry y="30" width="130" height="90" as="geometry" />
        </mxCell>
        <mxCell id="YcKdSxdi29RzgTdwLnxG-20" value="" style="align=center;spacingLeft=4;fontSize=14;verticalAlign=top;resizable=0;rotatable=0;part=1;" vertex="1" parent="YcKdSxdi29RzgTdwLnxG-18">
          <mxGeometry y="120" width="130" as="geometry" />
        </mxCell>
        <mxCell id="YcKdSxdi29RzgTdwLnxG-21" value="" style="align=center;spacingLeft=4;fontSize=14;verticalAlign=top;resizable=0;rotatable=0;part=1;" vertex="1" parent="YcKdSxdi29RzgTdwLnxG-18">
          <mxGeometry y="120" width="130" as="geometry" />
        </mxCell>
        <mxCell id="YcKdSxdi29RzgTdwLnxG-22" value="&lt;b&gt;Admin&lt;/b&gt;" style="whiteSpace=wrap;html=1;align=center;hachureGap=4;pointerEvents=0;fontSize=14;fillColor=#008a00;strokeColor=#005700;fontColor=#ffffff;" vertex="1" parent="1">
          <mxGeometry x="180" y="280" width="100" height="40" as="geometry" />
        </mxCell>
        <mxCell id="YcKdSxdi29RzgTdwLnxG-23" value="&lt;b&gt;D1&amp;nbsp; TSM Database&lt;/b&gt;" style="html=1;dashed=0;whitespace=wrap;shape=mxgraph.dfd.dataStoreID;align=left;spacingLeft=3;points=[[0,0],[0.5,0],[1,0],[0,0.5],[1,0.5],[0,1],[0.5,1],[1,1]];hachureGap=4;pointerEvents=0;fontSize=14;" vertex="1" parent="1">
          <mxGeometry x="560" y="280" width="120" height="30" as="geometry" />
        </mxCell>
        <mxCell id="YcKdSxdi29RzgTdwLnxG-24" value="" style="endArrow=classic;html=1;fontSize=14;sourcePerimeterSpacing=8;targetPerimeterSpacing=8;entryX=0.5;entryY=0;entryDx=0;entryDy=0;" edge="1" parent="1" target="YcKdSxdi29RzgTdwLnxG-22">
          <mxGeometry width="50" height="50" relative="1" as="geometry">
            <mxPoint x="347" y="140" as="sourcePoint" />
            <mxPoint x="370" y="220" as="targetPoint" />
            <Array as="points">
              <mxPoint x="230" y="140" />
            </Array>
          </mxGeometry>
        </mxCell>
        <mxCell id="YcKdSxdi29RzgTdwLnxG-25" value="Have to" style="text;html=1;align=center;verticalAlign=middle;resizable=0;points=[];autosize=1;strokeColor=none;fillColor=none;fontSize=14;" vertex="1" parent="1">
          <mxGeometry x="270" y="120" width="60" height="20" as="geometry" />
        </mxCell>
        <mxCell id="YcKdSxdi29RzgTdwLnxG-27" value="" style="endArrow=classic;html=1;fontSize=14;sourcePerimeterSpacing=8;targetPerimeterSpacing=8;exitX=0;exitY=0.5;exitDx=0;exitDy=0;entryX=1;entryY=0.5;entryDx=0;entryDy=0;" edge="1" parent="1" source="YcKdSxdi29RzgTdwLnxG-10" target="YcKdSxdi29RzgTdwLnxG-22">
          <mxGeometry width="50" height="50" relative="1" as="geometry">
            <mxPoint x="320" y="270" as="sourcePoint" />
            <mxPoint x="370" y="220" as="targetPoint" />
          </mxGeometry>
        </mxCell>
        <mxCell id="YcKdSxdi29RzgTdwLnxG-28" value="Can" style="text;html=1;align=center;verticalAlign=middle;resizable=0;points=[];autosize=1;strokeColor=none;fillColor=none;fontSize=14;" vertex="1" parent="1">
          <mxGeometry x="290" y="280" width="40" height="20" as="geometry" />
        </mxCell>
        <mxCell id="YcKdSxdi29RzgTdwLnxG-29" value="" style="endArrow=classic;html=1;fontSize=14;sourcePerimeterSpacing=8;targetPerimeterSpacing=8;exitX=0.5;exitY=1;exitDx=0;exitDy=0;entryX=0;entryY=0.5;entryDx=0;entryDy=0;" edge="1" parent="1" source="YcKdSxdi29RzgTdwLnxG-22" target="YcKdSxdi29RzgTdwLnxG-18">
          <mxGeometry width="50" height="50" relative="1" as="geometry">
            <mxPoint x="320" y="270" as="sourcePoint" />
            <mxPoint x="370" y="220" as="targetPoint" />
            <Array as="points">
              <mxPoint x="230" y="460" />
            </Array>
          </mxGeometry>
        </mxCell>
        <mxCell id="YcKdSxdi29RzgTdwLnxG-30" value="Can" style="text;html=1;align=center;verticalAlign=middle;resizable=0;points=[];autosize=1;strokeColor=none;fillColor=none;fontSize=14;" vertex="1" parent="1">
          <mxGeometry x="270" y="440" width="40" height="20" as="geometry" />
        </mxCell>
        <mxCell id="YcKdSxdi29RzgTdwLnxG-31" value="" style="endArrow=classic;html=1;fontSize=14;sourcePerimeterSpacing=8;targetPerimeterSpacing=8;exitX=0;exitY=0.5;exitDx=0;exitDy=0;" edge="1" parent="1" source="YcKdSxdi29RzgTdwLnxG-23">
          <mxGeometry width="50" height="50" relative="1" as="geometry">
            <mxPoint x="320" y="350" as="sourcePoint" />
            <mxPoint x="480" y="295" as="targetPoint" />
          </mxGeometry>
        </mxCell>
        <mxCell id="YcKdSxdi29RzgTdwLnxG-32" value="Provide Sales&lt;br&gt;Data" style="text;html=1;align=center;verticalAlign=middle;resizable=0;points=[];autosize=1;strokeColor=none;fillColor=none;fontSize=14;" vertex="1" parent="1">
          <mxGeometry x="477" y="260" width="100" height="40" as="geometry" />
        </mxCell>
      </root>
    </mxGraphModel>
  </diagram>
</mxfile>
